<svg id="Vrstva_1" data-name="Vrstva 1" xmlns="http://www.w3.org/2000/svg" xmlns:xlink="http://www.w3.org/1999/xlink" viewBox="0 0 2436 1125"><defs><style>.cls-1{fill:#fff;}.cls-2{opacity:0.25;}.cls-3,.cls-6,.cls-7{fill:#d110a4;}.cls-4,.cls-5{fill:none;}.cls-4,.cls-6{stroke:#d110a4;stroke-width:3px;}.cls-4,.cls-5,.cls-6{stroke-miterlimit:10;}.cls-5{stroke-width:10px;stroke:url(#Nepojmenovaný_přechod_12);}.cls-7{font-size:120px;font-family:CormorantGaramond-Bold, Cormorant Garamond;font-weight:700;}.cls-8{letter-spacing:-0.03em;}.cls-9{letter-spacing:0em;}</style><linearGradient id="Nepojmenovaný_přechod_12" x1="990" y1="391.36" x2="990" y2="266.36" gradientUnits="userSpaceOnUse"><stop offset="0" stop-color="#fff" stop-opacity="0.3"/><stop offset="0.23" stop-color="#f2bce5" stop-opacity="0.5"/><stop offset="0.58" stop-color="#e05fc2" stop-opacity="0.77"/><stop offset="0.85" stop-color="#d526ac" stop-opacity="0.94"/><stop offset="1" stop-color="#d110a4"/></linearGradient></defs><title>lscapeblock</title><rect class="cls-1" x="587.5" y="-709.5" width="1319" height="2544" transform="translate(684.5 1809.5) rotate(-90)"/><g class="cls-2"><path class="cls-3" d="M1495.6,513V830.88H930.12V513H1495.6m3-3H927.12V833.88H1498.6V510Z"/><circle class="cls-4" cx="1532.9" cy="671.64" r="26.1"/><path class="cls-4" d="M1538.53,493a39.49,39.49,0,0,1,39.31,39.79V810.45c0,22.08-17.6,40.35-39.31,40.35H883.08c-21.7,0-39.43-18.27-39.43-40.35V532.82A39.59,39.59,0,0,1,883.08,493Z"/><path class="cls-4" d="M889.85,645.21a2.11,2.11,0,0,1,2.12,2.12v49.6a2.11,2.11,0,0,1-2.12,2.12h0a2.11,2.11,0,0,1-2.11-2.12v-49.6a2.11,2.11,0,0,1,2.11-2.12Z"/><path class="cls-4" d="M868.18,666.37a5.39,5.39,0,1,1-5.39,5.38A5.38,5.38,0,0,1,868.18,666.37Z"/><path class="cls-4" d="M890.42,723.06A5.92,5.92,0,1,1,884.5,729,5.92,5.92,0,0,1,890.42,723.06Z"/><path class="cls-4" d="M1003,489.66V493h51.72v-3.37c0-.59-.48-.86-1.08-.86h-49.56C1003.52,488.8,1003,489.07,1003,489.66Z"/><path class="cls-4" d="M1538.31,498.55a33.87,33.87,0,0,1,34,33.88V810.94a34.27,34.27,0,0,1-34,34.35H883.17a34.27,34.27,0,0,1-34-34.35V532.43a33.87,33.87,0,0,1,34-33.88Z"/><path class="cls-4" d="M936.48,850.8v.83a1.28,1.28,0,0,0,1.08,1.29H960a1.27,1.27,0,0,0,1.08-1.29v-.83Z"/><path class="cls-4" d="M1003,850.8v1.68a1.29,1.29,0,0,0,1.08,1.29h49.56a1.28,1.28,0,0,0,1.08-1.29V850.8Z"/><path class="cls-4" d="M1070.86,850.8v1.68c0,.59.48,1.29,1.07,1.29h49.57c.59,0,1.07-.7,1.07-1.29V850.8Z"/></g><path class="cls-3" d="M1556.19,198.43V763.9H1238.27V198.43h317.92m3-3H1235.27V766.9h323.92V195.43Z"/><circle class="cls-4" cx="1397.5" cy="801.2" r="26.1"/><path class="cls-4" d="M1576.11,806.83a39.48,39.48,0,0,1-39.78,39.31H1258.69c-22.07,0-40.35-17.6-40.35-39.31V151.38c0-21.7,18.28-39.43,40.35-39.43h277.64a39.59,39.59,0,0,1,39.78,39.43Z"/><path class="cls-4" d="M1423.93,158.16a2.11,2.11,0,0,1-2.12,2.11h-49.59a2.11,2.11,0,0,1-2.12-2.11h0a2.11,2.11,0,0,1,2.12-2.12h49.59a2.11,2.11,0,0,1,2.12,2.12Z"/><path class="cls-4" d="M1402.77,136.48a5.38,5.38,0,1,1-5.38-5.39A5.38,5.38,0,0,1,1402.77,136.48Z"/><path class="cls-4" d="M1346.09,158.72a5.92,5.92,0,1,1-5.92-5.92A5.93,5.93,0,0,1,1346.09,158.72Z"/><path class="cls-4" d="M1579.49,271.34h-3.38v51.71h3.38c.59,0,.86-.48.86-1.08V272.41C1580.35,271.82,1580.08,271.34,1579.49,271.34Z"/><path class="cls-4" d="M1570.6,806.61a33.87,33.87,0,0,1-33.89,34h-278.5a34.27,34.27,0,0,1-34.36-34V151.47a34.27,34.27,0,0,1,34.36-34h278.5a33.87,33.87,0,0,1,33.89,34Z"/><path class="cls-4" d="M1218.34,204.78h-.83a1.29,1.29,0,0,0-1.29,1.08v22.43a1.28,1.28,0,0,0,1.29,1.08h.83Z"/><path class="cls-4" d="M1218.34,271.34h-1.68a1.27,1.27,0,0,0-1.28,1.07V322a1.27,1.27,0,0,0,1.28,1.08h1.68Z"/><path class="cls-4" d="M1218.34,339.16h-1.68a1.27,1.27,0,0,0-1.28,1.07V389.8a1.27,1.27,0,0,0,1.28,1.07h1.68Z"/><path class="cls-5" d="M1053,271.36h-20.7A100.31,100.31,0,0,0,932,371.66v19.7"/><polygon class="cls-6" points="1125.5 270.86 1050.5 227.56 1050.5 314.16 1125.5 270.86"/><text class="cls-7" transform="translate(426.36 1000.43)">PLEASE TURN <tspan class="cls-8" x="801.59" y="0">Y</tspan><tspan class="cls-9" x="872.39" y="0">OUR DEVICE</tspan></text></svg>